<svg viewBox="0 0 183 183" height="183" width="183" xmlns:xlink="http://www.w3.org/1999/xlink" xmlns="http://www.w3.org/2000/svg">
  <defs>
    <polygon points="0 .502 4.409 .502 4.409 9.304 0 9.304" id="grid-icon-pink-a"></polygon>
    <polygon points=".243 .187 48.952 .187 48.952 81.239 .243 81.239" id="grid-icon-pink-c"></polygon>
    <polygon points=".214 .443 10.506 .443 10.506 10.884 .214 10.884" id="grid-icon-pink-e"></polygon>
  </defs>
  <g transform="translate(6 19)" fill-rule="evenodd" fill="none">
    <g transform="translate(0 30)">
      <path d="M22.6827635,21.6934859 C27.8236723,20.1885666 28.3063805,25.2133987 28.3063805,25.2133987 C32.8099331,26.9840092 39.4610849,24.9497048 42.6983369,23.7337833 C43.6637535,23.3715373 44.2441683,22.3587134 44.0836969,21.3139265 C43.658577,18.5557959 45.2238203,15.4627208 47.8282455,14.5211475 C48.5115431,14.2747669 49.343665,14.0663422 49.5979604,13.3691519 C49.7759025,12.881052 49.5843721,12.3396805 49.3779593,11.8635668 C47.4186552,7.337489 43.8863429,3.58451352 39.6234975,1.29384006 C36.6716,-0.292984019 33.1722879,-0.394865716 30.0689779,0.849023244 L30.0476249,0.857679858 L8.62533839,8.40092084 C8.39886664,8.48082805 8.17757139,8.57471902 7.96274675,8.68259377 C5.3466745,9.99640153 4.09137394,13.1087875 5.03349642,15.94283 L5.76661783,18.3979792 L6.54050416,20.510859 C6.6252693,20.7412581 6.75662292,20.9576736 6.94621212,21.1088314 C7.66768641,21.6834975 8.58845585,21.9372029 9.5053429,21.8186739 C10.9618798,21.6308919 12.390593,21.2107131 13.7222469,20.5747848 L14.1913669,20.4882187 C16.7977333,24.1752707 16.8197334,28.8212093 15.878905,33.4185377 C15.5476092,35.0399882 17.5826196,36.0075314 18.5428599,34.6770762 C21.3439919,30.7942516 23.3686494,26.4932457 22.7940582,21.8213374 L22.6827635,21.6934859 Z" fill-rule="nonzero" fill="#E60067"></path>
      <g transform="translate(0 12.145)">
        <mask fill="#fff" id="grid-icon-pink-b">
          <use xlink:href="#grid-icon-pink-a"></use>
        </mask>
        <path mask="url(#grid-icon-pink-b)" d="M0.978099138,7.81352712 C1.45757219,8.59062478 2.22628202,9.16529082 3.11340422,9.28515165 C5.89706556,9.66004965 3.4214058,4.33223618 2.79181433,2.10482259 C1.34563044,-2.10362398 -0.833674867,2.8879133 0.329095806,6.60493052 C0.405449139,6.84731573 0.521273263,7.07438539 0.654568065,7.28946898 L0.978099138,7.81352712 Z" fill-rule="nonzero" fill="#E60067"></path>
      </g>
      <g transform="translate(26.53 30.124)">
        <mask fill="#fff" id="grid-icon-pink-d">
          <use xlink:href="#grid-icon-pink-c"></use>
        </mask>
        <path mask="url(#grid-icon-pink-d)" d="M26.6580545,30.5322801 C22.6158573,31.494496 18.9405443,32.8435961 15.6185272,35.4898567 C11.6229185,38.6721615 8.18443025,43.424643 7.09995409,48.5766606 C7.03783612,48.8723173 6.63342228,48.8809739 6.56742194,48.5786584 C5.49200466,43.6543763 7.17889567,38.9778066 10.2550291,35.4259309 C12.0642148,33.3376891 14.3535208,31.6376631 16.8440629,30.5056442 C19.9570789,29.0906207 23.2435076,28.7843097 26.6037013,29.270412 C27.287646,29.3689641 27.3309991,30.3717997 26.6580545,30.5322801 M48.9137569,63.5186437 C47.6312798,49.7732712 43.2066688,36.3395367 36.055338,24.6524409 C30.7254871,15.9425546 24.8313981,10.9257133 20.3466104,1.72506356 C19.7694309,0.54576627 18.4623654,-0.0648580217 17.2251825,0.285401932 C12.9707489,1.49066908 9.69661447,1.49200086 7.40213211,1.1424068 C6.14100799,0.949963593 5.04941415,2.05334904 5.19370901,3.35650251 C5.2519446,3.89254673 5.23253274,4.43658168 5.12576749,4.96530109 C4.76082444,6.77386768 3.48352376,8.34004908 3.40522925,10.1852398 C3.26481676,13.4894031 6.7938937,15.5483456 8.34878402,18.4423186 C11.045739,23.4611575 6.48200974,26.6301444 4.02705596,31.7788326 C0.791098178,38.5669504 -0.422143343,46.3599013 0.593097162,53.8485391 C1.72351473,62.1928499 5.46418099,69.8093391 9.69984979,77.096877 C11.7005659,80.540212 15.7667045,82.0784258 19.4568999,80.7832632 L43.3600226,72.3903422 C46.9868059,71.1171538 49.279347,67.4434197 48.9137569,63.5186437" fill-rule="nonzero" fill="#E60067"></path>
      </g>
    </g>
    <g transform="scale(-1 1) rotate(-6 537.998 1670.886)">
      <path d="M50.8507189,13.1046145 C52.6882445,13.2302848 54.2780283,11.8212145 54.4018992,9.95699625 C54.5264119,8.09277796 53.1375173,6.47990033 51.2993499,6.35423 C49.4624661,6.22855968 47.8720406,7.63763002 47.7481697,9.50184829 C47.6249405,11.3660666 49.0138351,12.9789443 50.8507189,13.1046145" fill-rule="nonzero" fill="#E60067"></path>
      <g transform="translate(34.17)">
        <mask fill="#fff" id="grid-icon-pink-f">
          <use xlink:href="#grid-icon-pink-e"></use>
        </mask>
        <path mask="url(#grid-icon-pink-f)" d="M5.01369147,10.872371 C7.84924441,11.0664112 10.3029155,8.89159842 10.4941773,6.01485503 C10.6854392,3.13811162 8.54176628,0.648797448 5.70621334,0.454757264 C2.8706604,0.26071708 0.416989304,2.43552988 0.225727472,5.31227328 C0.034465639,8.18901669 2.17813853,10.6783309 5.01369147,10.872371" fill-rule="nonzero" fill="#E60067"></path>
      </g>
      <path d="M11.1231332,23.411925 C13.9586862,23.6059651 16.4123573,21.4311523 16.603619,18.5544089 C16.7948809,15.6776655 14.651208,13.1883514 11.8156551,12.9943112 C8.98010213,12.8002709 6.52643104,14.9750837 6.3351692,17.8518271 C6.14326556,20.7285706 8.28758026,23.2178848 11.1231332,23.411925 M16.7823012,0.778049048 C14.6912575,0.635449046 12.8826137,2.2392107 12.7414137,4.35997876 C12.6002137,6.48139795 14.1810119,8.31696601 16.2720558,8.46021714 C18.3630996,8.60281715 20.1717434,6.99970663 20.3129433,4.87828744 C20.4541434,2.75686824 18.8733451,0.92130019 16.7823012,0.778049048 M38.0293728,21.2886825 C37.7976765,24.7801036 40.3989658,27.8007493 43.8403951,28.0364625 C47.2818245,28.2721757 50.259861,25.6324479 50.4915575,22.141678 C50.7232539,18.6502569 48.1219646,15.6289602 44.6805352,15.3938981 C41.2397477,15.1581848 38.261711,17.7972615 38.0293728,21.2886825 M25.6781587,8.16765924 C25.927826,7.92999257 26.3360224,8.09408025 26.3610533,8.43983642 C26.4091896,9.08186199 26.5580914,9.71477159 26.8013405,10.3092638 C26.9945278,10.779388 27.2679425,11.1928629 27.393097,11.6909862 C27.5188933,12.1930164 27.5432825,12.7868574 27.2518969,13.2374475 C26.6068697,14.2317405 24.9188877,14.031189 24.437524,12.9997808 C23.6634913,11.3393698 24.4400913,9.34752775 25.6781587,8.16765924 M28.5400262,21.4268547 C32.9416156,20.3863306 34.8240685,14.91023 30.9064099,10.2552191 C27.8763862,6.65375512 28.4052443,5.06627201 28.6966298,4.06937428 C28.999568,3.03601262 28.1356807,3.70538615 28.0413334,3.7672446 C26.5362697,4.7543752 22.287433,7.82190307 21.3035256,12.6703031 C20.1469692,18.3671406 23.600593,22.5943516 28.5400262,21.4268547 M56.5856858,50.4002448 C53.7340874,48.6909983 50.9992999,46.7916183 48.2157342,44.9736311 C44.8108885,42.7499828 41.0023391,40.7939535 37.5698953,38.6152338 C36.4370861,37.8963736 35.2952914,37.1918384 34.1406604,36.509442 C34.1085695,36.4899078 34.075195,36.4703735 34.0424622,36.4508393 C31.4713383,34.9362841 27.9913999,33.2452694 24.8529088,33.5701891 C20.3665993,34.0351042 16.1492117,35.2065078 12.5685079,38.1040877 C12.1192351,38.4674247 11.6661114,38.9512228 11.6975605,39.5333435 C11.7424878,40.3726649 12.7398734,40.9645526 13.3316297,41.4092822 C14.1486643,42.0220064 15.0067753,42.5761279 15.8796481,43.1015991 C17.5971537,44.1343096 19.3807665,45.0485124 21.1059739,46.0688512 C24.5717924,48.1186448 28.0812545,50.0994174 31.5053548,52.2214878 C33.1914112,53.26657 34.8947968,54.2862576 36.5237315,55.4218486 C38.2508644,56.6264605 39.8213935,58.3604504 41.9073028,58.9809883 C43.739052,59.5259938 45.5746521,58.8546669 47.220916,58.0459491 C48.9814234,57.1818842 51.1777253,55.9290878 52.9703236,55.1301372 C54.0004419,54.6717335 55.1448038,54.1983536 56.2288349,53.7620888 C56.9194312,53.4840513 59.614426,52.2162787 56.5856858,50.4002448" fill-rule="nonzero" fill="#E60067"></path>
      <path d="M62.2260486,53.57456 C58.0028845,56.6713892 53.3253132,57.8232587 48.7850911,60.1556477 C45.8616092,61.6116002 42.8572579,62.5837546 39.9581651,60.4213134 C34.6137446,57.1844887 29.008746,53.726276 23.7650911,50.354665 C19.6690071,47.9669288 15.573565,45.5798439 11.4781229,43.1921078 C9.48848635,42.176327 6.97512616,40.0933251 8.06364988,37.6079179 C10.284341,34.7754521 14.2604049,33.8885973 17.4277778,32.4834338 C30.0863588,26.0924794 42.0017143,37.5877325 52.2034151,43.6654878 C53.8901134,44.7548476 56.1050281,46.2394503 57.8302355,47.2656494 C59.9264138,48.4214256 65.0609596,50.7720466 62.2260486,53.57456 M69.2032545,50.9263673 C66.5275143,47.7318667 63.8915668,45.7543499 60.3853139,43.7032539 C49.3351293,37.5317342 39.2226414,27.65001 26.3683058,25.9133626 C19.1067743,25.8756493 11.7374174,28.9588046 5.40844786,32.4502255 C0.111522009,35.5587753 -1.62459631,42.916675 1.68397668,48.1323189 C3.76410956,51.3789106 7.34288801,53.2346641 10.6681483,55.1366486 C18.4322234,59.6601289 31.4059371,69.0521948 39.1186668,74.0588222 C43.0992235,76.4185592 45.6023145,76.1066625 49.4025202,75.4672415 C54.5306479,74.6044789 59.7826465,71.3305391 64.3761396,68.9668952 C67.2129762,67.3390413 69.7404563,65.5347281 70.4618601,62.1233974 C71.178771,58.7329034 71.5779819,53.7607865 69.2032545,50.9263673" fill-rule="nonzero" fill="#E60067"></path>
    </g>
    <path transform="rotate(11 84.208 42.605)" d="M109.032598,64.4702467 C108.86718,64.6315787 108.678535,64.8065368 108.46893,64.9940307 C108.255926,65.1782545 108.013464,65.3646583 107.75344,65.5679585 C107.228294,65.9674732 106.633468,66.434028 105.92251,66.8793262 C105.57128,67.1082432 105.200222,67.3453359 104.811603,67.5911492 C104.619559,67.7175986 104.411653,67.8276968 104.204314,67.9476057 C103.995275,68.0653345 103.782271,68.1852434 103.565868,68.3073325 C103.348332,68.4277865 103.12683,68.5509657 102.901363,68.67578 C102.788629,68.7373696 102.675896,68.8022294 102.559763,68.8621839 C102.441931,68.9205032 102.323532,68.9788225 102.204567,69.0376869 C101.727007,69.2736895 101.234152,69.5140524 100.726001,69.7587756 C98.6752692,70.6946103 96.3407206,71.5906571 93.8180938,72.3177412 C91.2898021,73.0268391 88.8249583,73.4944839 86.5759513,73.7811752 C86.0122833,73.8411297 85.4627778,73.8967238 84.9291343,73.9485027 C84.7954402,73.9615837 84.6634456,73.9741196 84.5320175,73.9861105 C84.4005894,73.9970113 84.2697278,74.0013716 84.1399991,74.0090022 C83.8811084,74.0215381 83.6256167,74.0340741 83.3746569,74.04661 C83.1242637,74.0569658 82.8784025,74.0678666 82.6365068,74.0782224 C82.3951776,74.086398 82.1583804,74.1022041 81.9261151,74.0962087 C81.4615847,74.0934835 81.0168818,74.0880331 80.5931394,74.0793124 C79.7450882,74.0765872 78.9837115,73.9964663 78.3186399,73.9348767 C77.9861041,73.8999941 77.6773613,73.8705619 77.3946776,73.8269586 C77.1131268,73.7789951 76.8570686,73.7304865 76.6270694,73.6814328 C75.709905,73.4857632 75.2244141,73.2857333 75.2510396,73.0922439 C75.2782317,72.8987545 75.8124416,72.7297919 76.739803,72.5891715 C76.9715017,72.5537438 77.2281264,72.5204963 77.5074112,72.488884 C77.7872624,72.4523663 78.0909067,72.4049477 78.4155115,72.3646147 C79.0652876,72.2774082 79.7994722,72.2190889 80.609568,72.0969998 C81.0146158,72.0430408 81.4372252,71.9896268 81.8773961,71.9373029 C82.0971983,71.9155013 82.320966,71.8724431 82.5486992,71.8386506 C82.7769989,71.803768 83.0086976,71.7683403 83.2449283,71.7323676 C83.481159,71.6980301 83.7207888,71.6626024 83.964384,71.6266298 C84.0861816,71.6086434 84.2091122,71.5933823 84.3320428,71.5726707 C84.4555399,71.5503241 84.579037,71.5274324 84.7042336,71.5045407 C85.2038871,71.4140639 85.7177031,71.3235872 86.2445485,71.2336555 C88.3451324,70.8270552 90.6349275,70.3152621 93.0051656,69.6514026 C95.3703052,68.9690118 97.5819232,68.2010496 99.5754385,67.4439882 C100.06886,67.2439583 100.551519,67.051559 101.022281,66.8662452 C101.140113,66.8199167 101.256812,66.7741333 101.372945,66.728895 C101.488511,66.6820215 101.600111,66.6302426 101.712845,66.581734 C101.937746,66.4841717 102.158681,66.3887896 102.376784,66.2944976 C102.595453,66.2012957 102.810156,66.1091838 103.021461,66.0192521 C103.231633,65.9282303 103.444071,65.8475643 103.641213,65.7505471 C104.040029,65.5646882 104.425816,65.3880951 104.796307,65.2218577 C105.545787,64.9008288 106.195563,64.5650838 106.790389,64.299104 C107.086102,64.1628438 107.36822,64.0434799 107.623711,63.9279313 C107.87637,63.8085674 108.110902,63.7022845 108.325039,63.6107177 C109.183287,63.2439054 109.727694,63.1065552 109.858556,63.2553512 C109.989417,63.4036023 109.693704,63.8254637 109.032598,64.4702467 L109.032598,64.4702467 Z M87.6635553,9.94083689 C87.5141819,10.0346509 87.3630784,10.1351659 87.2027471,10.2289799 C87.0418392,10.3221847 86.8768941,10.4178263 86.7079119,10.5152954 C86.3682173,10.7090152 86.0117974,10.9118727 85.6403826,11.1226496 C85.5475289,11.1750393 85.4535218,11.2280381 85.3583611,11.2816461 C85.2614703,11.331599 85.1640027,11.3815519 85.0653817,11.4327232 C84.867563,11.5338474 84.6662838,11.6367991 84.4615443,11.7415784 C84.050335,11.9474818 83.6287446,12.1716608 83.1840849,12.3787826 C82.7371183,12.5822493 82.2774637,12.7911987 81.8056976,13.0056307 C81.3362385,13.2261545 80.8402498,13.4168284 80.337917,13.6215135 C79.8332773,13.820716 79.323447,14.0406306 78.789394,14.2215576 C78.257648,14.4091856 77.7160975,14.6010779 77.1664728,14.7947977 C76.6099273,14.966587 76.0453075,15.140813 75.473767,15.3168665 C73.1760704,15.9814839 70.9470047,16.4682202 68.902493,16.7655009 C68.6487313,16.8117988 68.3938162,16.8319018 68.1446683,16.8635792 C67.8949438,16.8922108 67.6486796,16.9208423 67.4058758,16.9482555 C67.163072,16.9756687 66.9243054,17.0024727 66.6884223,17.0286675 C66.4531161,17.0530348 66.2201167,17.0615633 65.9923079,17.0780112 C65.5355369,17.1048152 65.0949143,17.1304008 64.671017,17.1553773 C64.4593567,17.1718252 64.2517335,17.1632967 64.0481474,17.1675609 C63.8451381,17.1675609 63.6467426,17.1681701 63.4529609,17.1687793 C63.0653976,17.1657334 62.6968665,17.171216 62.3490976,17.1572048 C62.0024823,17.1340559 61.674899,17.1121254 61.3680781,17.0914132 C61.0629873,17.0688735 60.7792356,17.0457246 60.5191299,17.0213573 C60.2596009,16.9915074 60.0237179,16.9482555 59.8120576,16.9129229 C58.9654163,16.7661101 58.5109522,16.6296534 58.5282542,16.5120813 C58.5449794,16.3951184 59.0300102,16.3073962 59.8806886,16.2501331 C60.0929256,16.2373403 60.3288086,16.2239383 60.5866074,16.2087087 C60.844983,16.1843415 61.1246975,16.1611926 61.4251744,16.1380436 C61.7244979,16.1179406 62.0445836,16.0960101 62.3837015,16.0728612 C62.7228194,16.0448388 63.0821228,15.9997594 63.4575748,15.9644268 C63.6455891,15.9455422 63.8376406,15.9272667 64.0343059,15.9077729 C64.2303944,15.8864516 64.4310969,15.8767046 64.6358364,15.8438088 C65.044162,15.7889825 65.4692128,15.7317194 65.9092586,15.6726287 C66.1289932,15.6415605 66.3533416,15.6196299 66.5799969,15.5818606 C66.8060755,15.5434822 67.0361912,15.5038854 67.2697673,15.4642885 C67.5027666,15.4253009 67.7398031,15.3857041 67.9797232,15.3454981 C68.2190667,15.3034645 68.4636006,15.2730054 68.7081346,15.2175699 C70.6724807,14.8465782 72.81446,14.3312103 75.0377583,13.6885235 C75.5925736,13.5203893 76.1398914,13.355301 76.6797117,13.1914311 C77.2149182,13.0117225 77.7420504,12.8338414 78.2605316,12.6596154 C78.7818965,12.4951363 79.2807689,12.2934971 79.7761809,12.115616 C80.2698627,11.9316431 80.758354,11.7647273 81.2226225,11.5691799 C81.6903514,11.3827703 82.1471224,11.2012341 82.5906286,11.0239622 C83.0335581,10.8460811 83.4551485,10.6529705 83.8692415,10.4793536 C84.0757112,10.3910223 84.2787205,10.3045184 84.4782695,10.2198422 C84.578044,10.1778086 84.6772417,10.1357751 84.7747093,10.0937415 C84.8710234,10.0492713 84.9667607,10.0054102 85.0613446,9.96154908 C85.4408337,9.78854144 85.8053277,9.6222348 86.1536733,9.46323834 C86.3284228,9.38526307 86.4991352,9.30850616 86.6652338,9.23418597 C86.8313323,9.15925661 86.9893566,9.07823542 87.145074,9.00452442 C87.4576623,8.85710242 87.7523719,8.71759978 88.0280493,8.58723487 C88.3037268,8.45686996 88.5655627,8.34356214 88.8020225,8.23025432 C89.0373287,8.11572813 89.2541796,8.01338559 89.4508449,7.92322668 C90.2380829,7.56441858 90.7063885,7.41029558 90.7704057,7.50715549 C90.8338461,7.60462458 90.4860772,7.94515722 89.7951534,8.48062805 C89.6227108,8.61464805 89.4283524,8.76085169 89.2143852,8.91862979 C88.9992645,9.07458033 88.7564607,9.2299217 88.4986619,9.40171098 C88.2374027,9.56984516 87.9588416,9.75016298 87.6635553,9.94083689 L87.6635553,9.94083689 Z M105.377962,28.201034 C105.227811,27.6304224 105.030243,27.0739069 104.787517,26.5354345 C104.746874,26.4452192 104.705103,26.3555678 104.661638,26.2664802 C103.788953,24.4661217 102.380013,22.9454305 100.634078,21.805335 L94.0392663,17.4998111 C95.0756504,16.9151034 95.7953615,16.4499309 96.2271882,16.1533482 C96.5382163,15.9396507 96.6934481,15.588375 96.626275,15.252887 C96.1436452,12.8458307 95.6373073,10.4432853 95.1072612,8.0469421 C94.717206,6.28210583 93.0333642,5.04953967 91.0249468,5.0562781 C85.0397726,5.07660425 79.1827353,6.59222083 73.4148857,8.03735673 C67.8694409,9.42723577 62.2630323,10.9981092 57.2205386,13.7558773 C55.4633145,14.7172338 54.577082,16.5970945 55.0879358,18.3269724 C55.7811164,20.6736972 56.4974406,23.0147835 57.2369085,25.347976 C57.3514978,25.7094009 57.6692997,25.9811744 58.0751603,26.0618043 C60.0796263,26.4587515 66.6473432,27.263359 77.8381456,23.9750123 C81.9571511,22.7644361 85.3090293,21.5397638 87.9835323,20.418839 C88.4751937,20.2130354 88.8742806,20.8558193 88.4746293,21.2082227 C85.8187541,23.5504367 83.0985283,25.2611438 77.7540381,27.0840561 C76.9581223,27.3552658 77.3222115,27.2571567 76.6030648,27.4725456 C76.3671125,27.5678355 76.0572133,27.6760939 75.6547396,27.7984483 C72.6511451,28.7101864 72.4405944,30.8561822 72.4405944,30.8561822 C72.4405944,30.8561822 70.1555821,37.8162905 70.1956601,40.5024502 C70.2221907,42.2514988 70.8583588,42.5920615 71.9207089,42.54639 C72.4846237,42.5215808 72.7143668,43.2726229 72.2283501,43.5584926 C71.1225352,44.2102979 69.449983,44.5987874 68.5332685,44.6568635 C66.6354891,44.7769626 65.1881641,43.1829715 65.2062275,41.3369415 C65.2146947,40.4257672 65.4252454,39.470613 65.6369252,38.562258 C65.9123911,37.3787464 66.2200323,36.2025648 66.5671871,35.0382239 C66.9425658,33.7774655 67.3252828,32.5189624 67.6594546,31.2463633 C67.7260631,30.9909413 67.7396106,30.7264978 67.67526,30.4772781 C67.4443879,29.5880938 66.5186419,29.6044453 65.736838,29.6664683 C64.8963283,29.7335659 64.0558186,29.8000997 63.2158734,29.8671973 C62.2726285,29.9421887 61.4501821,30.5567803 61.1747162,31.3923992 L59.3249175,35.4571611 C58.7491486,37.2039543 58.6040774,39.0212282 58.8998646,40.7764791 C58.998084,41.3589315 59.1442841,41.9312346 59.3379005,42.4883139 L69.2620113,70.8683471 C69.9162429,72.7566655 70.9170647,74.5158633 72.2418976,76.0568529 C72.2684282,76.0878644 72.2955232,76.1183121 72.3220537,76.1498874 C74.5223941,78.6855004 77.8923356,80.1498071 81.5479036,80.1537856 C90.5699765,80.1644671 99.5276987,77.4484235 107.022855,72.4313267 L107.902878,71.8421082 C110.94147,69.8083176 112.928438,66.7173169 113.343894,63.3861179 C113.348975,63.3455211 113.354055,63.3043603 113.358571,63.2643273 C113.600732,61.2474521 113.452839,59.2294492 112.944243,57.296587 L105.377962,28.201034 Z" fill="#E60067"></path>
  </g>
</svg>
